HIERARCHY
ROOT root
{
	OFFSET 0.543951 0.670295 -0.566562
	CHANNELS 6 Xposition Yposition Zposition Xrotation Yrotation Zrotation
	JOINT 1
	{
		OFFSET 0.00360347 0.0370251 0.0233205
		CHANNELS 3 Xrotation Yrotation Zrotation
		JOINT 2
		{
			OFFSET -0.00673153 0.197777 -0.00804797
			CHANNELS 3 Xrotation Yrotation Zrotation
			JOINT 3
			{
				OFFSET -0.021017 0.101785 -0.0183303
				CHANNELS 3 Xrotation Yrotation Zrotation
				End Site
				{
					OFFSET 0 0 0
				}
			}
			JOINT 4
			{
				OFFSET -0.10035 -0.0643991 0.0250991
				CHANNELS 3 Xrotation Yrotation Zrotation
				JOINT 5
				{
					OFFSET -0.0148135 -0.141234 0.0126319
					CHANNELS 3 Xrotation Yrotation Zrotation
					JOINT 6
					{
						OFFSET -0.0187255 -0.122513 -0.0324719
						CHANNELS 3 Xrotation Yrotation Zrotation
						JOINT 7
						{
							OFFSET 0.00332734 -0.0392637 -0.01177
							CHANNELS 3 Xrotation Yrotation Zrotation
							End Site
							{
								OFFSET 0 0 0
							}
						}
					}
				}
			}
			JOINT 8
			{
				OFFSET 0.0843178 -0.0619084 -0.00882203
				CHANNELS 3 Xrotation Yrotation Zrotation
				JOINT 9
				{
					OFFSET 0.0430307 -0.144317 0.0113802
					CHANNELS 3 Xrotation Yrotation Zrotation
					JOINT 10
					{
						OFFSET 0.0110223 -0.123546 -0.0319613
						CHANNELS 3 Xrotation Yrotation Zrotation
						JOINT 11
						{
							OFFSET 0.00253407 -0.0278432 -0.0128899
							CHANNELS 3 Xrotation Yrotation Zrotation
							End Site
							{
								OFFSET 0 0 0
							}
						}
					}
				}
			}
		}
	}
	JOINT 12
	{
		OFFSET -0.0409909 -0.0425845 0.00342011
		CHANNELS 3 Xrotation Yrotation Zrotation
		JOINT 13
		{
			OFFSET -0.00433525 -0.247377 0.0309073
			CHANNELS 3 Xrotation Yrotation Zrotation
			JOINT 14
			{
				OFFSET 0.00457186 -0.196922 0.00378244
				CHANNELS 3 Xrotation Yrotation Zrotation
				JOINT 15
				{
					OFFSET -0.0148514 -0.045471 -0.0113857
					CHANNELS 3 Xrotation Yrotation Zrotation
					End Site
					{
						OFFSET 0 0 0
					}
				}
			}
		}
	}
	JOINT 16
	{
		OFFSET 0.0421098 -0.0414641 -0.0115724
		CHANNELS 3 Xrotation Yrotation Zrotation
		JOINT 17
		{
			OFFSET 0.0243408 -0.253474 0.0202791
			CHANNELS 3 Xrotation Yrotation Zrotation
			JOINT 18
			{
				OFFSET 0.01532 -0.18353 0.0210422
				CHANNELS 3 Xrotation Yrotation Zrotation
				JOINT 19
				{
					OFFSET -0.00786796 -0.0224152 -0.0452959
					CHANNELS 3 Xrotation Yrotation Zrotation
					End Site
					{
						OFFSET 0 0 0
					}
				}
			}
		}
	}
}
MOTION
Frames: 16
Frame Time: 0.0333333
0.543951 0.670295 -0.566562 0.0943104 -2.96261 0.00350939 0.575326 -2.98152 0.0832418 3.0947 -0.18085 3.10704 2.92795 -0.172739 2.93804 3.07826 -0.206052 0.999777 3.07139 -0.180009 0.105807 0.278891 -3.00831 -2.99358 0.280375 -3.00819 3.05986 3.07413 -0.152655 -0.948704 -0 0 -0 0.196497 -2.5612 3.03851 0.376739 -2.53846 3.04149 0.0943106 -2.96261 -2.36118 3.02039 -0.175667 0.0176603 3.11833 -0.173141 -0.0235608 0.300349 -2.96988 -2.83003 0.0943103 -2.96261 2.35121 3.04468 -0.176445 -0.0969417 3.01294 -0.173318 -0.0840029 1.13226 -3.0076 -2.98575
0.543935 0.670283 -0.56654 0.0943366 -2.96253 0.00378803 0.57525 -2.98174 0.0831779 3.09473 -0.180782 3.10691 2.92728 -0.172608 2.93877 3.07839 -0.205818 0.99942 3.06667 -0.112008 0.107049 0.274112 -3.07299 -3.00274 0.282916 -3.07233 3.06743 3.0743 -0.152803 -0.948371 -0 0 0.39172 0.199112 -2.56468 3.03876 0.372968 -2.54427 3.0501 0.0943361 -2.96253 -2.36114 3.02041 -0.175799 0.0175753 3.08454 -0.174336 -0.0572922 0.268682 -2.95818 -2.8676 0.0943363 -2.96253 2.35143 3.04465 -0.17657 -0.0970423 3.01191 -0.173339 -0.0816669 1.13189 -3.00992 -2.9859
0.543933 0.670281 -0.566535 0.0943387 -2.96252 0.00382971 0.575238 -2.98177 0.0831672 3.09474 -0.180768 3.10689 2.92718 -0.172584 2.93888 3.07841 -0.205776 0.999365 3.06644 -0.105417 0.107402 0.274813 -3.07945 -3.0046 0.285664 -3.07865 3.06853 3.07433 -0.152825 -0.94832 -0 0 0.78344 0.199518 -2.56523 3.0388 0.372669 -2.54514 3.05156 0.0943388 -2.96252 -2.36114 3.02042 -0.175819 0.0175668 3.07893 -0.174512 -0.0627763 0.265249 -2.95627 -2.87264 0.0943388 -2.96252 2.35146 3.04464 -0.176588 -0.0970572 3.01173 -0.173339 -0.0812953 1.13133 -3.01022 -2.98553
0.543931 0.67028 -0.566529 0.0943477 -2.96252 0.00386227 0.575224 -2.98181 0.0831529 3.09474 -0.180741 3.10688 2.9271 -0.17255 2.93897 3.07843 -0.205721 0.999322 3.06606 -0.0949829 0.107892 0.278391 -3.08998 -3.0075 0.28489 -3.08953 3.07154 3.07436 -0.152834 -0.948283 -0 0 1.17516 0.200135 -2.56589 3.0389 0.373842 -2.54598 3.05335 0.0943475 -2.96252 -2.36114 3.02042 -0.175833 0.0175653 3.07062 -0.174748 -0.0731434 0.264474 -2.95267 -2.87036 0.0943476 -2.96252 2.35148 3.04464 -0.176601 -0.0970644 3.01162 -0.17334 -0.0809838 1.12999 -3.01035 -2.9853
0.543929 0.670278 -0.566529 0.0943502 -2.96252 0.00388641 0.575216 -2.98189 0.0831271 3.09475 -0.180685 3.10685 2.92704 -0.172485 2.93908 3.07847 -0.205623 0.999287 3.06504 -0.0729826 0.108735 0.286611 -3.11214 -3.01405 0.305419 -3.111 3.08143 3.07441 -0.15283 -0.948274 -0 0 1.56688 0.201031 -2.56701 3.03905 0.375823 -2.54718 3.05505 0.0943499 -2.96252 -2.36113 3.02045 -0.175837 0.0175842 3.06516 -0.17489 -0.0797081 0.264569 -2.95031 -2.86926 0.09435 -2.96252 2.3515 3.04465 -0.176604 -0.0970635 3.01153 -0.173333 -0.0807304 1.12866 -3.01042 -2.98526
0.543926 0.670276 -0.566529 0.0943553 -2.96252 0.00390365 0.575205 -2.98205 0.0830635 3.09476 -0.180525 3.10681 2.927 -0.172318 2.93923 3.07853 -0.205374 0.999226 3.064 -0.0473148 0.109892 0.298397 -3.13811 -3.02204 0.339019 -3.13613 3.09299 3.07449 -0.152776 -0.94828 -0 0 1.9586 0.202515 -2.56991 3.03912 0.378255 -2.55008 3.05602 0.0943551 -2.96252 -2.36113 3.02054 -0.175837 0.0176947 3.0614 -0.174982 -0.0843278 0.263797 -2.94864 -2.86932 0.0943551 -2.96252 2.3515 3.04466 -0.176601 -0.0970613 3.01148 -0.173325 -0.0804953 1.12736 -3.01047 -2.9855
0.543921 0.670274 -0.566529 0.0943489 -2.96256 0.0038993 0.575175 -2.98233 0.0828758 3.09475 -0.180191 3.1067 2.92706 -0.171974 2.9396 3.07861 -0.204903 0.999082 3.06331 -0.017063 0.111462 0.314421 3.11453 -3.03212 0.380867 3.11701 3.10331 3.07461 -0.152606 -0.94847 -0 0 2.35032 0.204567 -2.57406 3.03927 0.379839 -2.55429 3.05602 0.0943497 -2.96256 -2.36115 3.02073 -0.175807 0.0178966 3.05849 -0.175019 -0.0877774 0.263171 -2.94741 -2.86973 0.0943494 -2.96256 2.35147 3.04467 -0.176565 -0.0970561 3.01141 -0.17328 -0.0802662 0.597439 -2.95864 3.12544
0.543911 0.670269 -0.566529 0.0943604 -2.96265 0.00388421 0.575117 -2.98275 0.0825248 3.09471 -0.179712 3.10646 2.92727 -0.171478 2.94031 3.07864 -0.204296 0.998869 3.06391 0.0148103 0.113576 0.330528 3.08278 -3.04326 0.410894 3.08483 3.11379 3.07471 -0.152287 -0.948912 -0 0 2.74204 0.206984 -2.58065 3.03916 0.386447 -2.56105 3.06144 0.0943607 -2.96265 -2.36116 3.02095 -0.17572 0.018159 3.05622 -0.174982 -0.0906196 0.262999 -2.94644 -2.86979 0.0943603 -2.96265 2.35141 3.04469 -0.176471 -0.0970436 3.01133 -0.173176 -0.080057 0.228317 -2.95153 3.00191
0.543894 0.670265 -0.566535 0.0943781 -2.96281 0.00386244 0.575028 -2.98335 0.0819829 3.09467 -0.179016 3.10623 2.9275 -0.170768 2.94114 3.0787 -0.203446 0.998647 3.065 0.0468127 0.115757 0.34674 3.05131 -3.05528 0.428648 3.0523 3.12575 3.07484 -0.151783 -0.949423 -0 0 3.13376 0.209643 -2.58922 3.03879 0.396614 -2.56992 3.07048 0.0943789 -2.96281 -2.36118 3.02119 -0.175567 0.0184397 3.05454 -0.174866 -0.09289 0.263266 -2.94573 -2.86937 0.0943787 -2.96281 2.35133 3.04472 -0.17631 -0.0970469 3.01124 -0.173003 -0.079837 0.784381 -2.97227 -3.09733
0.543864 0.670258 -0.566546 0.0944844 -2.96317 0.00371038 0.574912 -2.98425 0.0811513 3.09466 -0.177976 3.10602 2.92771 -0.169723 2.94213 3.07883 -0.202183 0.998441 3.06641 0.0751821 0.117878 0.360594 3.02373 -3.06639 0.441136 3.02375 3.13656 3.07506 -0.151022 -0.950068 -0 0 -2.75771 0.21256 -2.60049 3.038 0.409285 -2.58175 3.08223 0.094484 -2.96318 -2.36121 3.02145 -0.175186 0.0187459 3.05337 -0.17451 -0.0946641 0.263609 -2.94542 -2.86878 0.0944844 -2.96317 2.35119 3.04478 -0.175925 -0.0970838 3.01116 -0.172603 -0.0796386 0.945413 -2.9887 -3.04645
0.543805 0.670249 -0.566557 0.0945717 -2.96365 0.00334447 0.574749 -2.98524 0.0799735 3.09458 -0.176863 3.10574 2.92783 -0.168588 2.9435 3.07878 -0.201004 0.998194 3.06863 0.0992173 0.11953 0.3705 3.00083 -3.07603 0.449074 2.99998 -3.13617 3.0751 -0.150017 -0.951126 -0 0 -2.36599 0.215826 -2.61096 3.0377 0.420564 -2.59302 3.09288 0.0945721 -2.96365 -2.36134 3.02172 -0.174647 0.0189952 3.05185 -0.174005 -0.0970567 0.263731 -2.94503 -2.86798 0.0945723 -2.96365 2.3509 3.04485 -0.175385 -0.0971836 3.01111 -0.172047 -0.079457 0.594638 -2.95997 3.12136
0.543706 0.670241 -0.566578 0.0947481 -2.96426 0.00263805 0.57459 -2.9864 0.0786761 3.09455 -0.175598 3.10568 2.92794 -0.167338 2.9448 3.07874 -0.199774 0.998092 3.07148 0.118092 0.120414 0.377286 2.98325 -3.08386 0.452119 2.98169 -3.1264 3.07512 -0.148752 -0.952024 -0 0 -1.97427 0.218878 -2.62089 3.03743 0.432139 -2.60398 3.1043 0.0947475 -2.96426 -2.36147 3.02195 -0.173906 0.019078 3.08591 -0.172356 -0.0531994 0.305236 -2.96161 -2.85066 0.0947473 -2.96426 2.35056 3.04492 -0.174652 -0.0974532 3.01119 -0.171306 -0.0791555 0.368856 -2.95342 3.04207
0.543561 0.670231 -0.5666 0.0948667 -2.96493 0.00164521 0.574399 -2.98759 0.0770883 3.09444 -0.174317 3.10549 2.9282 -0.166065 2.94673 3.07843 -0.198797 0.997921 3.07502 0.132269 0.120562 0.381249 2.97044 -3.08985 0.452629 2.9684 -3.11874 3.07487 -0.147182 -0.95356 -0 0 -1.58255 0.221526 -2.62941 3.03728 0.441648 -2.61352 3.11377 0.0948663 -2.96493 -2.36177 3.02212 -0.173044 0.0189753 3.10114 -0.171039 -0.033925 0.338663 -2.97009 -2.83715 0.0948662 -2.96493 2.35002 3.04498 -0.173805 -0.0978686 3.01125 -0.170446 -0.0788493 0.267301 -2.95409 3.00639
0.543401 0.670219 -0.566622 0.0949642 -2.96559 0.000423805 0.574191 -2.98883 0.0754022 3.09431 -0.172945 3.10523 2.92754 -0.164633 2.94811 3.07806 -0.197777 0.997726 3.07862 0.142637 0.120081 0.383117 2.96142 -3.09439 0.451581 2.95903 -3.11228 3.07457 -0.145473 -0.955245 -0 0 -1.19083 0.223649 -2.63675 3.03711 0.446955 -2.62157 3.11901 0.0949639 -2.96559 -2.36218 3.02227 -0.172149 0.0187636 3.10678 -0.169985 -0.0269108 0.355454 -2.97405 -2.83019 0.0949641 -2.96559 2.34933 3.04503 -0.172931 -0.0983148 3.01136 -0.169561 -0.0785975 0.215057 -2.95562 2.98721
0.543228 0.670205 -0.56665 0.0950182 -2.96622 -0.000923801 0.573973 -2.99004 0.0738877 3.0942 -0.171636 3.10507 2.92628 -0.16324 2.94868 3.07768 -0.196869 0.997597 3.08234 0.149774 0.118997 0.383573 2.95561 -3.0978 0.449427 2.95296 -3.1068 3.07424 -0.143768 -0.956688 -0 0 -0.799108 0.225253 -2.64295 3.03692 0.450331 -2.62844 3.12304 0.0950181 -2.96622 -2.36265 3.02242 -0.171255 0.0184721 3.10959 -0.169032 -0.0232276 0.366917 -2.97669 -2.82562 0.0950183 -2.96622 2.34862 3.04509 -0.172061 -0.0988274 3.01154 -0.168687 -0.0783048 0.772907 -2.97518 -3.11093
0.543051 0.670191 -0.566672 0.0949841 -2.96671 -0.00236601 0.573669 -2.99122 0.0725081 3.09399 -0.170378 3.10488 2.92539 -0.161923 2.94933 3.07715 -0.196111 0.997497 3.08574 0.154033 0.117506 0.382873 2.95257 -3.10017 0.446519 2.94981 -3.10342 3.07374 -0.142009 -0.958113 -0 0 -0.407389 0.226218 -2.64799 3.03665 0.45203 -2.63385 3.12503 0.094984 -2.96671 -2.36316 3.02268 -0.170484 0.01813 3.11128 -0.168246 -0.0209211 0.374683 -2.97858 -2.82222 0.094984 -2.96671 2.34787 3.04513 -0.17131 -0.0993615 3.01169 -0.16793 -0.0780561 1.07829 -3.00809 -3.00941
